<svg xmlns="http://www.w3.org/2000/svg" width="1200" height="760" viewBox="0 0 1200 760" role="img" aria-label="GameRoom first-run setup wizard">
  <rect width="1200" height="760" fill="#05090c"/>
  <rect x="86" y="58" width="1028" height="644" rx="18" fill="#121a21" stroke="#3a4854" stroke-width="2"/>
  <text x="126" y="112" fill="#35e88a" font-family="Inter,Arial,sans-serif" font-size="16" font-weight="900">FIRST RUN SETUP</text>
  <text x="126" y="162" fill="#f7f8f3" font-family="Inter,Arial,sans-serif" font-size="44" font-weight="900">Set up GameRoom</text>
  <g font-family="Inter,Arial,sans-serif" font-weight="850" font-size="18">
    <rect x="126" y="202" width="214" height="58" rx="12" fill="#123822" stroke="#35e88a"/>
    <circle cx="154" cy="231" r="14" fill="#35e88a"/><text x="150" y="237" fill="#06120c">1</text><text x="180" y="238" fill="#f7f8f3">Folders</text>
    <rect x="356" y="202" width="214" height="58" rx="12" fill="#172229" stroke="#33424c"/>
    <circle cx="384" cy="231" r="14" fill="#24313b"/><text x="380" y="237" fill="#aab6c1">2</text><text x="410" y="238" fill="#f7f8f3">Emulators</text>
    <rect x="586" y="202" width="214" height="58" rx="12" fill="#172229" stroke="#33424c"/>
    <circle cx="614" cy="231" r="14" fill="#24313b"/><text x="610" y="237" fill="#aab6c1">3</text><text x="640" y="238" fill="#f7f8f3">BIOS</text>
    <rect x="816" y="202" width="214" height="58" rx="12" fill="#172229" stroke="#33424c"/>
    <circle cx="844" cy="231" r="14" fill="#24313b"/><text x="840" y="237" fill="#aab6c1">4</text><text x="870" y="238" fill="#f7f8f3">Games</text>
  </g>
  <rect x="126" y="298" width="948" height="92" rx="12" fill="#132330" stroke="#25445f"/>
  <text x="154" y="338" fill="#f7f8f3" font-family="Inter,Arial,sans-serif" font-size="24" font-weight="900">Choose your main folders</text>
  <text x="154" y="370" fill="#aab6c1" font-family="Inter,Arial,sans-serif" font-size="18">Defaults are already created inside GameRoom. Change them if your files live somewhere else.</text>
  <g font-family="Inter,Arial,sans-serif">
    <rect x="126" y="420" width="948" height="70" rx="12" fill="#141d24" stroke="#2c3a43"/>
    <rect x="150" y="442" width="48" height="27" rx="14" fill="#233039"/><text x="163" y="461" fill="#aab6c1" font-size="13" font-weight="900">GA</text>
    <text x="220" y="450" fill="#f7f8f3" font-size="20" font-weight="900">Games Folder</text>
    <text x="220" y="474" fill="#aab6c1" font-size="15">GameRoom/Games</text>
    <rect x="828" y="436" width="86" height="38" rx="8" fill="#172229" stroke="#33424c"/><text x="846" y="461" fill="#f7f8f3" font-size="15" font-weight="900">Choose</text>
    <rect x="928" y="436" width="74" height="38" rx="8" fill="#172229" stroke="#33424c"/><text x="951" y="461" fill="#f7f8f3" font-size="15" font-weight="900">Open</text>
    <rect x="126" y="506" width="948" height="70" rx="12" fill="#141d24" stroke="#2c3a43"/>
    <rect x="150" y="528" width="48" height="27" rx="14" fill="#233039"/><text x="163" y="547" fill="#aab6c1" font-size="13" font-weight="900">BI</text>
    <text x="220" y="536" fill="#f7f8f3" font-size="20" font-weight="900">BIOS Folder</text>
    <text x="220" y="560" fill="#aab6c1" font-size="15">GameRoom/BIOS</text>
    <rect x="828" y="522" width="86" height="38" rx="8" fill="#172229" stroke="#33424c"/><text x="846" y="547" fill="#f7f8f3" font-size="15" font-weight="900">Choose</text>
    <rect x="928" y="522" width="74" height="38" rx="8" fill="#172229" stroke="#33424c"/><text x="951" y="547" fill="#f7f8f3" font-size="15" font-weight="900">Open</text>
    <rect x="126" y="592" width="948" height="70" rx="12" fill="#141d24" stroke="#2c3a43"/>
    <rect x="150" y="614" width="48" height="27" rx="14" fill="#233039"/><text x="163" y="633" fill="#aab6c1" font-size="13" font-weight="900">EM</text>
    <text x="220" y="622" fill="#f7f8f3" font-size="20" font-weight="900">Emulators Folder</text>
    <text x="220" y="646" fill="#aab6c1" font-size="15">GameRoom/Emulators</text>
    <rect x="828" y="608" width="86" height="38" rx="8" fill="#172229" stroke="#33424c"/><text x="846" y="633" fill="#f7f8f3" font-size="15" font-weight="900">Choose</text>
    <rect x="928" y="608" width="74" height="38" rx="8" fill="#172229" stroke="#33424c"/><text x="951" y="633" fill="#f7f8f3" font-size="15" font-weight="900">Open</text>
  </g>
</svg>
